<?xml version="1.0" standalone="no"?>
<!DOCTYPE svg PUBLIC "-//W3C//DTD SVG 20010904//EN"
 "http://www.w3.org/TR/2001/REC-SVG-20010904/DTD/svg10.dtd">
<svg version="1.0" xmlns="http://www.w3.org/2000/svg"
 width="100.000000pt" height="100.000000pt" viewBox="0 0 100.000000 100.000000"
 preserveAspectRatio="xMidYMid meet">

<g transform="translate(0.000000,100.000000) scale(0.100000,-0.100000)"
fill="#000000" stroke="none">
<path d="M411 909 c-86 -17 -158 -76 -191 -159 -16 -38 -19 -144 -7 -202 7
-32 5 -37 -13 -43 -70 -22 -31 -175 45 -175 20 0 25 -5 25 -25 0 -56 64 -155
123 -189 89 -52 174 -43 254 27 46 41 93 123 93 163 0 16 8 23 28 27 54 11 90
104 58 152 -9 14 -22 25 -30 25 -11 0 -11 9 0 52 17 63 17 100 3 151 -13 47
-63 106 -106 123 -17 8 -43 25 -56 38 -42 42 -125 55 -226 35z"/>
</g>
</svg>
